<?xml version="1.0" encoding="utf-8"?>
<!-- Generator: Adobe Illustrator 19.1.0, SVG Export Plug-In . SVG Version: 6.00 Build 0)  -->
<svg version="1.1" id="Layer_1" xmlns="http://www.w3.org/2000/svg" xmlns:xlink="http://www.w3.org/1999/xlink" x="0px" y="0px"
	 viewBox="-3 156.7 632 169.3" style="enable-background:new -3 156.7 632 169.3;" xml:space="preserve">
<style type="text/css">
	.st0{display:none;}
	.st1{display:inline;}
	.st2{fill:#EA505A;}
	.st3{fill:#699BC5;}
	.st4{font-family:'OmnesSemibold-Roman';}
	.st5{font-size:45.1787px;}
	.st6{fill:#FFFFFF;}
	.st7{fill:#FD4F57;}
</style>
<g class="st0">
	<g class="st1">
		<path class="st2" d="M285,324.3c-13.8,0-47.3-3.3-67.5-33H28.8c-15.8,0-28.6-12.8-28.6-28.6V187c0-15.8,12.8-28.6,28.6-28.6h249.5
			c15.8,0,28.6,12.8,28.6,28.6v75.7c0,15.8-12.8,28.6-28.6,28.6h-4.9c4.2,9,10.9,17.2,21.4,17.2c2.3,0,4.1,0.1,5.5,0.4
			c6,1.2,6.3,5.8,6.3,6.7C306.5,324.3,291.4,324.3,285,324.3z M28.8,170.5c-9.1,0-16.5,7.4-16.5,16.5v75.7c0,9.1,7.4,16.5,16.5,16.5
			h195.4l1.8,2.9c12.4,20.1,32.1,26.9,46.5,29.1c-5.7-5.7-10.3-13.8-13.6-24.1l-2.5-7.9h22c9.1,0,16.5-7.4,16.5-16.5V187
			c0-9.1-7.4-16.5-16.5-16.5C278.4,170.5,28.8,170.5,28.8,170.5z"/>
	</g>
	<g class="st1">
		<path class="st2" d="M48.1,207.1c3.6-5.3,9-9.1,17-9.1c13.4,0,19.1,9.5,19.1,21.4v24.8c0,5.4-2.8,7.1-6.6,7.1H76
			c-4,0-6.8-1.6-6.8-7.1v-22.6c0-6.9-3.5-11.1-9.5-11.1c-5.3,0-9.3,2.7-11.4,6.8v26.9c0,5.4-2.7,7.1-6.6,7.1h-1.6
			c-4,0-6.8-1.6-6.8-7.1v-43.8c0-0.4,2.6-1.7,5.6-1.7C42.9,198.7,47,200.5,48.1,207.1z"/>
		<path class="st2" d="M92.2,225.4c0-15.8,11.3-27.4,27-27.4c15.2,0,25.7,10.7,25.7,25.8v1.1c-0.1,2.6-0.8,4.1-3.6,4.1h-35.6
			c1.1,7.7,7,12.3,15,12.3c7.8,0,12.2-3.5,14.6-7.6c0.1-0.2,7.2,0.7,7.2,6.7c0,5.6-7.9,11.8-22.3,11.8
			C103.3,252.2,92.2,241.7,92.2,225.4z M105.6,220.4H131c-0.3-7.2-4.9-12-12.1-12C112,208.4,106.7,213.4,105.6,220.4z"/>
		<path class="st2" d="M162,247.1L148.6,203c-0.2-1,4.9-4.4,9.1-4.4c2.9,0,6.2,1.5,7.2,6.6l6.3,30.8l8.3-26.8c1-3.3,3.8-4.9,8-4.9
			s7,1.6,7.8,4.9l7.8,26.2l6.3-30.3c0.8-5,4.1-6.6,6.9-6.6c4.3,0,9.1,3.6,8.8,4.4L212,247.1c-1,3.5-4.3,4.3-7.9,4.3
			c-5.3,0-7.3-1-8.7-5.1l-8.4-26l-8.5,26c-1.3,4.1-3.5,5.1-8.6,5.1C166.3,251.4,163.1,250.6,162,247.1z"/>
		<path class="st2" d="M229,240.8c0-3.8,4.2-6.5,4.5-6.1c3.6,3.8,9.4,6.9,17,6.9c5.8,0,9.1-1.7,9.1-5c0-3.9-4.1-4.5-11.1-6
			c-7.1-1.6-18.2-3.9-18.2-15.7c0-10,8.5-16.7,21.6-16.7c14,0,20.9,5.1,20.9,11c0,3.9-4.5,6.7-4.9,6.3c-3.5-4-9.1-6.9-15.1-6.9
			c-5.6,0-8.8,1.8-8.8,5.1c0,3.7,4.1,4.2,11,5.8c7.3,1.6,19,4,19,15.8c0,10.4-8.6,16.7-22.7,16.7C236.3,252,229,246.7,229,240.8z"/>
	</g>
	<g class="st1">
		<path class="st2" d="M342.5,208.1c3.3-5.4,8.6-9.4,16.7-9.4c13.4,0,19.1,9.7,19.1,21.8v24.3c0,5.4-2.8,7.1-6.6,7.1h-1.6
			c-4,0-6.8-1.6-6.8-7.1v-22.2c0-7.2-3.6-11.4-9.4-11.4c-7.1,0-11.5,4.7-11.5,12.1v21.6c0,5.4-2.7,7.1-6.6,7.1h-1.6
			c-4,0-6.8-1.6-6.8-7.1v-65.2c0-0.5,2.6-1.7,5.6-1.7c4.4,0,9.3,2.3,9.3,12v18.1H342.5z"/>
		<path class="st2" d="M424.7,243.8c-3.6,5.3-8.9,9.1-16.9,9.1c-13.5,0-19.1-9.5-19.1-21.4v-25c0-5.4,2.8-7.2,6.6-7.2h1.6
			c3.9,0,6.8,1.7,6.8,7.2v22.7c0,6.9,3.5,11.1,9.7,11.1c5,0,9-2.7,11.1-6.8v-27c0-5.4,2.7-7.2,6.7-7.2h1.5c4,0,6.8,1.7,6.8,7.2v43.7
			c0,0.5-2.5,1.7-5.6,1.7C430,251.9,425.9,250.3,424.7,243.8z"/>
		<path class="st2" d="M465.4,243.9v1c0,5.4-2.7,7.1-6.6,7.1h-1.6c-4,0-6.8-1.6-6.8-7.1v-65.2c0-0.5,2.6-1.7,5.6-1.7
			c4.4,0,9.3,2.3,9.3,12v17.5c3.5-5.4,9.3-8.7,16.7-8.7c14,0,23.9,10.5,23.9,27c0,16.1-9.8,27.2-24.1,27.2
			C474,252.9,468.1,249,465.4,243.9z M491.7,225.8c0-9-5.4-15.1-13.2-15.1c-6.2,0-10.8,3.3-13,8.5v10c0.2,7,5.8,11.8,12.9,11.8
			C486.4,241,491.7,234.9,491.7,225.8z"/>
		<path class="st2" d="M529.4,243.9v1c0,5.4-2.7,7.1-6.6,7.1h-1.6c-4,0-6.8-1.6-6.8-7.1v-65.2c0-0.5,2.6-1.7,5.6-1.7
			c4.4,0,9.3,2.3,9.3,12v17.5c3.5-5.4,9.3-8.7,16.7-8.7c14,0,23.9,10.5,23.9,27c0,16.1-9.8,27.2-24.1,27.2
			C538,252.9,532.1,249,529.4,243.9z M555.7,225.8c0-9-5.4-15.1-13.2-15.1c-6.2,0-10.8,3.3-13,8.5v10c0.2,7,5.8,11.8,12.9,11.8
			C550.4,241,555.7,234.9,555.7,225.8z"/>
		<path class="st2" d="M586.3,267.7l8.6-19.5c-2.4-0.3-3.9-1.3-4.9-3.4l-17.7-41.1c-0.3-0.8,3.6-4.3,8.1-4.4c3.5,0,6.6,1.7,8.4,7.5
			l11.2,29.5l9.9-29.4c1.8-5.8,5-7.6,8.3-7.6c4.2,0,8.4,3.5,8,4.2l-23.5,61c-2.2,5.6-5.2,7.3-8.5,7.3
			C589.9,271.8,585.9,268.4,586.3,267.7z"/>
	</g>
</g>
<text transform="matrix(1 0 0 1 401.5251 299.9838)" class="st3 st4 st5">Sverige</text>
<g>
	<g>
		<path class="st6" d="M300.9,264.4v-75.9c0-12.5-10.1-22.6-22.6-22.6H28.5C16,166,5.9,176.1,5.9,188.5v75.9
			c0,12.5,10.1,22.6,22.6,22.6h192.3c29.8,48.2,100.2,29.4,74.1,29.4c-17.6,0-26.3-16.8-30.3-29.4h13.7
			C290.8,286.9,300.9,276.8,300.9,264.4z"/>
		<path class="st3" d="M285.1,326c-13.8,0-47.3-3.3-67.6-33h-189c-15.8,0-28.6-12.8-28.6-28.6v-75.9c0-15.8,12.8-28.6,28.6-28.6
			h249.9c15.8,0,28.6,12.8,28.6,28.6v75.9c0,15.8-12.8,28.6-28.6,28.6h-4.9c4.2,9,10.9,17.2,21.4,17.2c2.3,0,4.1,0.1,5.5,0.4
			c6,1.2,6.3,5.8,6.3,6.7C306.6,326,291.5,326,285.1,326z M28.5,172c-9.1,0-16.5,7.4-16.5,16.5v75.9c0,9.1,7.4,16.5,16.5,16.5h195.6
			l1.8,2.9c12.4,20.1,32.2,27,46.5,29.1c-5.7-5.7-10.3-13.8-13.6-24.1l-2.5-7.9h22c9.1,0,16.5-7.4,16.5-16.5v-75.9
			c0-9.1-7.4-16.5-16.5-16.5H28.5z"/>
	</g>
	<g>
		<path class="st7" d="M47.8,208.7c3.6-5.3,9-9.1,17.1-9.1c13.5,0,19.2,9.5,19.2,21.4v24.8c0,5.4-2.8,7.1-6.6,7.1h-1.6
			c-4,0-6.8-1.6-6.8-7.1v-22.6c0-6.9-3.5-11.1-9.5-11.1c-5.3,0-9.3,2.8-11.4,6.8v26.9c0,5.4-2.8,7.1-6.6,7.1h-1.6
			c-4,0-6.8-1.6-6.8-7.1v-43.9c0-0.4,2.6-1.7,5.6-1.7C42.6,200.2,46.7,202,47.8,208.7z"/>
		<path class="st7" d="M91.9,227c0-15.8,11.3-27.4,27-27.4c15.3,0,25.7,10.7,25.7,25.8v1.1c-0.1,2.6-0.8,4.1-3.6,4.1h-35.7
			c1.1,7.7,7,12.3,15,12.3c7.8,0,12.2-3.5,14.6-7.6c0.1-0.2,7.2,0.7,7.2,6.7c0,5.6-7.9,11.9-22.4,11.9
			C103.1,253.8,91.9,243.3,91.9,227z M105.4,221.9h25.4c-0.3-7.2-4.9-12-12.1-12C111.8,209.9,106.5,214.9,105.4,221.9z"/>
		<path class="st7" d="M161.9,248.7l-13.5-44.2c-0.2-1,4.9-4.4,9.1-4.4c2.9,0,6.2,1.5,7.2,6.6l6.4,30.8l8.3-26.8
			c1-3.3,3.8-4.9,8.1-4.9c4.2,0,7,1.6,7.8,4.9l7.8,26.3l6.4-30.3c0.8-5,4.1-6.6,6.9-6.6c4.3,0,9.1,3.6,8.8,4.4L212,248.7
			c-1,3.5-4.3,4.3-7.9,4.3c-5.3,0-7.3-1-8.7-5.1l-8.4-26.1l-8.5,26.1c-1.3,4.1-3.5,5.1-8.6,5.1C166.2,253.1,162.9,252.2,161.9,248.7
			z"/>
		<path class="st7" d="M228.9,242.4c0-3.8,4.2-6.5,4.6-6.1c3.6,3.8,9.4,6.9,17.1,6.9c5.8,0,9.1-1.7,9.1-5c0-3.9-4.1-4.6-11.1-6
			c-7.1-1.6-18.2-3.9-18.2-15.7c0-10.1,8.5-16.7,21.6-16.7c14,0,21,5.1,21,11c0,3.9-4.6,6.7-4.9,6.4c-3.5-4-9.1-6.9-15.1-6.9
			c-5.6,0-8.8,1.8-8.8,5.1c0,3.7,4.1,4.2,11,5.8c7.3,1.6,19.1,4,19.1,15.8c0,10.4-8.6,16.7-22.8,16.7
			C236.2,253.6,228.9,248.3,228.9,242.4z"/>
	</g>
	<g>
		<path class="st7" d="M342.7,209.7c3.3-5.4,8.6-9.4,16.7-9.4c13.5,0,19.2,9.7,19.2,21.8v24.4c0,5.4-2.8,7.1-6.6,7.1h-1.6
			c-4,0-6.8-1.6-6.8-7.1v-22.2c0-7.2-3.6-11.4-9.4-11.4c-7.1,0-11.5,4.7-11.5,12.1v21.6c0,5.4-2.8,7.1-6.6,7.1h-1.6
			c-4,0-6.8-1.6-6.8-7.1v-65.3c0-0.5,2.6-1.7,5.6-1.7c4.4,0,9.3,2.3,9.3,12V209.7z"/>
		<path class="st7" d="M425,245.4c-3.6,5.3-8.9,9.1-16.9,9.1c-13.6,0-19.2-9.5-19.2-21.4v-25c0-5.4,2.8-7.2,6.6-7.2h1.6
			c3.9,0,6.8,1.7,6.8,7.2v22.8c0,6.9,3.5,11.1,9.7,11.1c5,0,9-2.8,11.1-6.8v-27.1c0-5.4,2.8-7.2,6.7-7.2h1.5c4,0,6.8,1.7,6.8,7.2
			v43.8c0,0.5-2.5,1.7-5.6,1.7C430.3,253.5,426.1,252,425,245.4z"/>
		<path class="st7" d="M465.8,245.5v1c0,5.4-2.8,7.1-6.6,7.1h-1.6c-4,0-6.8-1.6-6.8-7.1v-65.3c0-0.5,2.6-1.7,5.6-1.7
			c4.4,0,9.3,2.3,9.3,12v17.5c3.5-5.4,9.3-8.7,16.7-8.7c14,0,23.9,10.5,23.9,27c0,16.1-9.9,27.2-24.2,27.2
			C474.3,254.5,468.4,250.6,465.8,245.5z M492,227.4c0-9-5.4-15.1-13.2-15.1c-6.2,0-10.8,3.3-13,8.5v10.1c0.2,7,5.8,11.9,12.9,11.9
			C486.7,242.6,492,236.5,492,227.4z"/>
		<path class="st7" d="M529.9,245.5v1c0,5.4-2.8,7.1-6.6,7.1h-1.6c-4,0-6.8-1.6-6.8-7.1v-65.3c0-0.5,2.6-1.7,5.6-1.7
			c4.4,0,9.3,2.3,9.3,12v17.5c3.5-5.4,9.3-8.7,16.7-8.7c14,0,23.9,10.5,23.9,27c0,16.1-9.9,27.2-24.2,27.2
			C538.4,254.5,532.5,250.6,529.9,245.5z M556.1,227.4c0-9-5.4-15.1-13.2-15.1c-6.2,0-10.8,3.3-13,8.5v10.1
			c0.2,7,5.8,11.9,12.9,11.9C550.8,242.6,556.1,236.5,556.1,227.4z"/>
		<path class="st7" d="M586.8,269.3l8.6-19.5c-2.4-0.3-3.9-1.3-4.9-3.4l-17.8-41.2c-0.3-0.8,3.6-4.3,8.2-4.5c3.5,0,6.6,1.7,8.4,7.5
			l11.2,29.6l10-29.4c1.8-5.8,5-7.6,8.3-7.6c4.2,0,8.4,3.5,8.1,4.2l-23.5,61.1c-2.2,5.6-5.2,7.3-8.5,7.3
			C590.4,273.5,586.4,270.1,586.8,269.3z"/>
	</g>
</g>
</svg>
